<mxfile>
    <diagram id="gRBI3I0pX8M-mybBj-Ol" name="Architect">
        <mxGraphModel dx="644" dy="293" grid="1" gridSize="10" guides="1" tooltips="1" connect="1" arrows="1" fold="1" page="1" pageScale="1" pageWidth="827" pageHeight="1169" math="0" shadow="0">
            <root>
                <mxCell id="0"/>
                <mxCell id="1" parent="0"/>
                <mxCell id="LfQHeROU4mgIVNuJvFk8-3" value="SEC-API" style="whiteSpace=wrap;html=1;aspect=fixed;" parent="1" vertex="1">
                    <mxGeometry x="170" y="240" width="80" height="80" as="geometry"/>
                </mxCell>
                <mxCell id="LfQHeROU4mgIVNuJvFk8-6" style="edgeStyle=orthogonalEdgeStyle;rounded=0;orthogonalLoop=1;jettySize=auto;html=1;startArrow=classic;startFill=1;" parent="1" source="LfQHeROU4mgIVNuJvFk8-4" target="LfQHeROU4mgIVNuJvFk8-3" edge="1">
                    <mxGeometry relative="1" as="geometry"/>
                </mxCell>
                <mxCell id="3" value="Request" style="edgeStyle=orthogonalEdgeStyle;rounded=0;orthogonalLoop=1;jettySize=auto;html=1;entryX=1;entryY=0.5;entryDx=0;entryDy=0;startArrow=classic;startFill=1;" parent="1" source="LfQHeROU4mgIVNuJvFk8-4" target="2" edge="1">
                    <mxGeometry x="0.25" y="-10" relative="1" as="geometry">
                        <Array as="points">
                            <mxPoint x="420" y="150"/>
                        </Array>
                        <mxPoint as="offset"/>
                    </mxGeometry>
                </mxCell>
                <mxCell id="4" value="Response" style="edgeLabel;html=1;align=center;verticalAlign=middle;resizable=0;points=[];" parent="3" vertex="1" connectable="0">
                    <mxGeometry x="0.0639" relative="1" as="geometry">
                        <mxPoint x="-22.5" y="10" as="offset"/>
                    </mxGeometry>
                </mxCell>
                <mxCell id="LfQHeROU4mgIVNuJvFk8-4" value="API" style="rounded=0;whiteSpace=wrap;html=1;" parent="1" vertex="1">
                    <mxGeometry x="370" y="250" width="120" height="60" as="geometry"/>
                </mxCell>
                <mxCell id="LfQHeROU4mgIVNuJvFk8-7" value="Request" style="text;html=1;align=center;verticalAlign=middle;resizable=0;points=[];autosize=1;" parent="1" vertex="1">
                    <mxGeometry x="280" y="250" width="60" height="20" as="geometry"/>
                </mxCell>
                <mxCell id="LfQHeROU4mgIVNuJvFk8-8" value="Response" style="text;html=1;align=center;verticalAlign=middle;resizable=0;points=[];autosize=1;" parent="1" vertex="1">
                    <mxGeometry x="275" y="290" width="70" height="20" as="geometry"/>
                </mxCell>
                <mxCell id="LfQHeROU4mgIVNuJvFk8-9" value="ข้อมูลของ กองทุนที่ร้องขอ" style="text;html=1;align=center;verticalAlign=middle;resizable=0;points=[];autosize=1;" parent="1" vertex="1">
                    <mxGeometry x="235" y="320" width="150" height="20" as="geometry"/>
                </mxCell>
                <mxCell id="LfQHeROU4mgIVNuJvFk8-10" value="บันทึกหรืออัพเดทข้อมูลของกองทุน" style="text;html=1;align=center;verticalAlign=middle;resizable=0;points=[];autosize=1;" parent="1" vertex="1">
                    <mxGeometry x="445" y="180" width="190" height="20" as="geometry"/>
                </mxCell>
                <mxCell id="LfQHeROU4mgIVNuJvFk8-13" style="edgeStyle=orthogonalEdgeStyle;rounded=0;orthogonalLoop=1;jettySize=auto;html=1;startArrow=classic;startFill=1;exitX=1;exitY=0.5;exitDx=0;exitDy=0;" parent="1" source="LfQHeROU4mgIVNuJvFk8-12" target="LfQHeROU4mgIVNuJvFk8-4" edge="1">
                    <mxGeometry relative="1" as="geometry">
                        <mxPoint x="230" y="470" as="sourcePoint"/>
                        <Array as="points">
                            <mxPoint x="390" y="470"/>
                        </Array>
                    </mxGeometry>
                </mxCell>
                <mxCell id="LfQHeROU4mgIVNuJvFk8-12" value="Client App" style="rounded=0;whiteSpace=wrap;html=1;" parent="1" vertex="1">
                    <mxGeometry x="110" y="440" width="120" height="60" as="geometry"/>
                </mxCell>
                <mxCell id="LfQHeROU4mgIVNuJvFk8-15" value="Ontology Database" style="shape=cylinder3;whiteSpace=wrap;html=1;boundedLbl=1;backgroundOutline=1;size=15;" parent="1" vertex="1">
                    <mxGeometry x="610" y="490" width="60" height="80" as="geometry"/>
                </mxCell>
                <mxCell id="LfQHeROU4mgIVNuJvFk8-17" style="edgeStyle=orthogonalEdgeStyle;rounded=0;orthogonalLoop=1;jettySize=auto;html=1;startArrow=classic;startFill=1;" parent="1" source="LfQHeROU4mgIVNuJvFk8-16" target="LfQHeROU4mgIVNuJvFk8-15" edge="1">
                    <mxGeometry relative="1" as="geometry">
                        <mxPoint x="600" y="530" as="targetPoint"/>
                    </mxGeometry>
                </mxCell>
                <mxCell id="LfQHeROU4mgIVNuJvFk8-19" style="edgeStyle=orthogonalEdgeStyle;rounded=0;orthogonalLoop=1;jettySize=auto;html=1;startArrow=classic;startFill=1;" parent="1" source="LfQHeROU4mgIVNuJvFk8-16" target="LfQHeROU4mgIVNuJvFk8-4" edge="1">
                    <mxGeometry relative="1" as="geometry"/>
                </mxCell>
                <mxCell id="LfQHeROU4mgIVNuJvFk8-16" value="Ontology API" style="rounded=0;whiteSpace=wrap;html=1;" parent="1" vertex="1">
                    <mxGeometry x="370" y="500" width="120" height="60" as="geometry"/>
                </mxCell>
                <mxCell id="LfQHeROU4mgIVNuJvFk8-20" value="ดุึงข้อมูล" style="text;html=1;align=center;verticalAlign=middle;resizable=0;points=[];autosize=1;" parent="1" vertex="1">
                    <mxGeometry x="310" y="440" width="60" height="20" as="geometry"/>
                </mxCell>
                <mxCell id="LfQHeROU4mgIVNuJvFk8-21" value="บันทึก Ontology" style="text;html=1;align=center;verticalAlign=middle;resizable=0;points=[];autosize=1;" parent="1" vertex="1">
                    <mxGeometry x="490" y="500" width="100" height="20" as="geometry"/>
                </mxCell>
                <mxCell id="LfQHeROU4mgIVNuJvFk8-22" value="แปลงข้อมูล ประมวลผล" style="text;html=1;strokeColor=none;fillColor=none;align=center;verticalAlign=middle;whiteSpace=wrap;rounded=0;" parent="1" vertex="1">
                    <mxGeometry x="350" y="560" width="160" height="20" as="geometry"/>
                </mxCell>
                <mxCell id="LfQHeROU4mgIVNuJvFk8-23" value="ส่งข้อมูล เพื่อประมวลผล" style="text;html=1;align=center;verticalAlign=middle;resizable=0;points=[];autosize=1;" parent="1" vertex="1">
                    <mxGeometry x="445" y="370" width="130" height="20" as="geometry"/>
                </mxCell>
                <mxCell id="LfQHeROU4mgIVNuJvFk8-28" style="edgeStyle=orthogonalEdgeStyle;rounded=0;orthogonalLoop=1;jettySize=auto;html=1;entryX=0.653;entryY=-0.026;entryDx=0;entryDy=0;entryPerimeter=0;startArrow=classic;startFill=1;" parent="1" source="LfQHeROU4mgIVNuJvFk8-27" target="LfQHeROU4mgIVNuJvFk8-4" edge="1">
                    <mxGeometry relative="1" as="geometry"/>
                </mxCell>
                <mxCell id="LfQHeROU4mgIVNuJvFk8-27" value="Mature Fund Database" style="shape=cylinder3;whiteSpace=wrap;html=1;boundedLbl=1;backgroundOutline=1;size=15;" parent="1" vertex="1">
                    <mxGeometry x="575" y="80" width="60" height="80" as="geometry"/>
                </mxCell>
                <mxCell id="LfQHeROU4mgIVNuJvFk8-34" value="SQL" style="text;html=1;strokeColor=none;fillColor=none;align=center;verticalAlign=middle;whiteSpace=wrap;rounded=0;" parent="1" vertex="1">
                    <mxGeometry x="585" y="80" width="40" height="20" as="geometry"/>
                </mxCell>
                <mxCell id="2" value="Fast API&lt;br&gt;(fbProphet python ML)" style="rounded=0;whiteSpace=wrap;html=1;" parent="1" vertex="1">
                    <mxGeometry x="130" y="120" width="150" height="60" as="geometry"/>
                </mxCell>
            </root>
        </mxGraphModel>
    </diagram>
</mxfile>